<?xml version="1.0" standalone="no"?>
<!DOCTYPE svg PUBLIC "-//W3C//DTD SVG 20010904//EN"
 "http://www.w3.org/TR/2001/REC-SVG-20010904/DTD/svg10.dtd">
<svg version="1.0" xmlns="http://www.w3.org/2000/svg"
 width="64.000000pt" height="64.000000pt" viewBox="0 0 64.000000 64.000000"
 preserveAspectRatio="xMidYMid meet">

<g transform="translate(0.000000,64.000000) scale(0.100000,-0.100000)"
fill="#000000" stroke="none">
<path d="M71 575 c-25 -66 -26 -93 -7 -114 8 -9 20 -47 26 -85 11 -70 24 -102
68 -168 13 -21 30 -62 37 -92 12 -50 11 -55 -7 -74 -37 -36 -17 -41 156 -38
216 5 246 21 246 132 0 71 -60 164 -106 164 -19 0 -18 -5 10 -48 57 -86 57
-171 0 -192 -33 -13 -39 -8 -24 21 29 52 -21 202 -83 255 -17 14 -42 28 -57
31 -18 3 -34 17 -45 37 -17 31 -17 34 0 59 19 30 17 48 -16 124 -19 44 -22 46
-30 26 -7 -20 -15 -23 -69 -23 -46 0 -60 3 -60 14 0 37 -20 21 -39 -29z m59
-45 c8 -5 12 -12 9 -15 -8 -8 -39 5 -39 16 0 11 11 11 30 -1z m120 1 c0 -5 -9
-11 -20 -14 -20 -5 -26 3 -13 16 9 10 33 8 33 -2z"/>
</g>
</svg>
